<?xml version="1.0" encoding="UTF-8" standalone="no"?>
<svg
   width="40.88604"
   height="29.745192"
   viewBox="0 0 40.88604 29.745192"
   version="1.1"
   id="svg101"
   sodipodi:docname="logo.svg"
   inkscape:version="1.1.2 (b8e25be8, 2022-02-05)"
   xmlns:inkscape="http://www.inkscape.org/namespaces/inkscape"
   xmlns:sodipodi="http://sodipodi.sourceforge.net/DTD/sodipodi-0.dtd"
   xmlns="http://www.w3.org/2000/svg"
   xmlns:svg="http://www.w3.org/2000/svg">
  <sodipodi:namedview
     id="namedview103"
     pagecolor="#ffffff"
     bordercolor="#666666"
     borderopacity="1.0"
     inkscape:pageshadow="2"
     inkscape:pageopacity="0.0"
     inkscape:pagecheckerboard="0"
     showgrid="false"
     inkscape:zoom="4.6082213"
     inkscape:cx="96.458042"
     inkscape:cy="26.148918"
     inkscape:window-width="1312"
     inkscape:window-height="793"
     inkscape:window-x="0"
     inkscape:window-y="25"
     inkscape:window-maximized="0"
     inkscape:current-layer="svg101" />
  <defs
     id="defs75">
    <style
       id="style73">.a{fill:#172033;}</style>
  </defs>
  <g
     id="g97"
     transform="translate(0,1.9145542e-4)">
    <path
       class="a"
       d="m 834.612,-294.758 a 6.662,6.662 0 0 0 -6.276,-4.29 h -27.53 a 6.657,6.657 0 0 0 -6.259,4.275 6.636,6.636 0 0 0 -0.4,1.9 l -0.014,0.24 v 21.856 a 1.475,1.475 0 0 0 1.474,1.474 h 0.228 a 1.475,1.475 0 0 0 1.474,-1.474 v -16 l 12.991,11.227 a 6.56,6.56 0 0 0 2.788,1.421 6.417,6.417 0 0 0 2.979,0 6.559,6.559 0 0 0 2.788,-1.421 l 12.982,-11.22 v 15.991 a 1.475,1.475 0 0 0 1.474,1.474 h 0.228 a 1.475,1.475 0 0 0 1.474,-1.474 V -292.2 a 6.569,6.569 0 0 0 -0.401,-2.558 z m -37.054,1.1 a 3.412,3.412 0 0 1 3.219,-2.18 h 27.6 a 3.476,3.476 0 0 1 2.606,1.158 3.236,3.236 0 0 1 0.785,2.573 3.479,3.479 0 0 1 -1.21,2.2 l -13.8,11.93 a 3.374,3.374 0 0 1 -1.974,0.8 3.031,3.031 0 0 1 -0.422,0 3.35,3.35 0 0 1 -1.959,-0.8 l -13.893,-12.008 a 3.3,3.3 0 0 1 -0.952,-3.673 z"
       transform="translate(-794.133,299.048)"
       id="path95" />
  </g>
</svg>
