<svg xmlns="http://www.w3.org/2000/svg" width="176" height="29.743" viewBox="0 0 176 29.743"><defs><style>.a{fill:#172033;}</style></defs><g transform="translate(-794.133 299.048)"><g transform="translate(850.213 -293.656)"><path class="a" d="M1086.176-251.953a1.711,1.711,0,0,1-.464-1.246v-15.563a1.666,1.666,0,0,1,.464-1.233,1.667,1.667,0,0,1,1.233-.464,1.7,1.7,0,0,1,1.259.464,1.668,1.668,0,0,1,.464,1.233V-253.2a1.713,1.713,0,0,1-.464,1.246,1.676,1.676,0,0,1-1.259.477A1.641,1.641,0,0,1,1086.176-251.953Z" transform="translate(-1085.712 270.565)"/><path class="a" d="M1133.934-240.322a6.013,6.013,0,0,1,1.14,4v6.522a1.549,1.549,0,0,1-.438,1.166,1.66,1.66,0,0,1-1.206.424,1.707,1.707,0,0,1-1.22-.424,1.523,1.523,0,0,1-.451-1.166v-6.337a3.438,3.438,0,0,0-.57-2.2,2.191,2.191,0,0,0-1.79-.689,3.025,3.025,0,0,0-2.293.9,3.346,3.346,0,0,0-.862,2.413v5.913a1.524,1.524,0,0,1-.451,1.166,1.709,1.709,0,0,1-1.22.424,1.66,1.66,0,0,1-1.206-.424,1.549,1.549,0,0,1-.437-1.166v-10.261a1.458,1.458,0,0,1,.451-1.114,1.708,1.708,0,0,1,1.22-.424,1.58,1.58,0,0,1,1.127.411,1.406,1.406,0,0,1,.438,1.074v.716a4.483,4.483,0,0,1,1.776-1.67,5.348,5.348,0,0,1,2.519-.583A4.334,4.334,0,0,1,1133.934-240.322Z" transform="translate(-1115.773 247.295)"/><path class="a" d="M1214.021-264.1a5.527,5.527,0,0,1,2.028,2.333,8.029,8.029,0,0,1,.729,3.526,8.292,8.292,0,0,1-.729,3.566,5.627,5.627,0,0,1-2.041,2.4,5.371,5.371,0,0,1-2.983.849,5.083,5.083,0,0,1-2.505-.61,4.147,4.147,0,0,1-1.684-1.7v.663a1.491,1.491,0,0,1-.451,1.14,1.67,1.67,0,0,1-1.193.424,1.621,1.621,0,0,1-1.18-.424,1.513,1.513,0,0,1-.438-1.14v-15.855a1.438,1.438,0,0,1,.464-1.114,1.718,1.718,0,0,1,1.206-.424,1.738,1.738,0,0,1,1.193.4,1.376,1.376,0,0,1,.451,1.087v6.257a3.963,3.963,0,0,1,1.67-1.631,5.231,5.231,0,0,1,2.466-.57A5.487,5.487,0,0,1,1214.021-264.1Zm-1.432,8.988a4.955,4.955,0,0,0,.875-3.129,4.73,4.73,0,0,0-.862-3.049,2.98,2.98,0,0,0-2.452-1.061,2.963,2.963,0,0,0-2.453,1.074,4.834,4.834,0,0,0-.862,3.089,4.891,4.891,0,0,0,.862,3.1,2.947,2.947,0,0,0,2.453,1.087A2.928,2.928,0,0,0,1212.59-255.108Z" transform="translate(-1180.906 270.565)"/><path class="a" d="M1285.845-228.975a5.683,5.683,0,0,1-2.32-2.36,7.481,7.481,0,0,1-.822-3.579,7.4,7.4,0,0,1,.822-3.566,5.707,5.707,0,0,1,2.32-2.347,7.137,7.137,0,0,1,3.487-.822,7.138,7.138,0,0,1,3.486.822,5.629,5.629,0,0,1,2.307,2.347,7.506,7.506,0,0,1,.808,3.566,7.585,7.585,0,0,1-.808,3.579,5.607,5.607,0,0,1-2.307,2.36,7.132,7.132,0,0,1-3.486.822A7.13,7.13,0,0,1,1285.845-228.975Zm5.926-2.81a4.928,4.928,0,0,0,.849-3.129,4.939,4.939,0,0,0-.849-3.115,2.925,2.925,0,0,0-2.439-1.074,2.963,2.963,0,0,0-2.453,1.074,4.881,4.881,0,0,0-.862,3.115,4.926,4.926,0,0,0,.848,3.129,2.941,2.941,0,0,0,2.439,1.061A2.971,2.971,0,0,0,1291.771-231.785Z" transform="translate(-1244.815 247.295)"/><path class="a" d="M1371.689-229.382a1.466,1.466,0,0,1-.451,1.047,1.434,1.434,0,0,1-1.061.464,1.455,1.455,0,0,1-1.14-.557l-3.738-4.136-3.739,4.136a1.538,1.538,0,0,1-1.14.53,1.421,1.421,0,0,1-1.034-.451,1.421,1.421,0,0,1-.451-1.034,1.5,1.5,0,0,1,.477-1.087l3.871-4.216-3.659-3.977a1.5,1.5,0,0,1-.477-1.087,1.408,1.408,0,0,1,.451-1.047,1.443,1.443,0,0,1,1.034-.437,1.539,1.539,0,0,1,1.14.53l3.526,3.871,3.526-3.871a1.539,1.539,0,0,1,1.14-.53,1.429,1.429,0,0,1,1.047.437,1.43,1.43,0,0,1,.438,1.047,1.5,1.5,0,0,1-.477,1.087l-3.659,3.977,3.9,4.216A1.5,1.5,0,0,1,1371.689-229.382Z" transform="translate(-1306.386 246.961)"/><path class="a" d="M1437.771-252.385a8.486,8.486,0,0,1-2.956-1.472,1.49,1.49,0,0,1-.61-1.273,1.494,1.494,0,0,1,.331-.968.981.981,0,0,1,.782-.411,2.156,2.156,0,0,1,1.087.371,7.932,7.932,0,0,0,2.386,1.193,9.625,9.625,0,0,0,2.757.371,5.43,5.43,0,0,0,2.97-.676,2.213,2.213,0,0,0,1.034-1.975,1.7,1.7,0,0,0-.968-1.551,12.852,12.852,0,0,0-3.221-1.047,19.037,19.037,0,0,1-3.792-1.167,5.35,5.35,0,0,1-2.2-1.7,4.39,4.39,0,0,1-.742-2.625,4.937,4.937,0,0,1,.928-2.943,6.114,6.114,0,0,1,2.585-2.028,9.157,9.157,0,0,1,3.725-.729,9.249,9.249,0,0,1,6.178,2.015,2,2,0,0,1,.49.57,1.51,1.51,0,0,1,.146.7,1.5,1.5,0,0,1-.331.968.981.981,0,0,1-.782.411,1.46,1.46,0,0,1-.49-.079,3.889,3.889,0,0,1-.6-.292,8.975,8.975,0,0,0-2.108-1.18,7.153,7.153,0,0,0-2.505-.384,4.916,4.916,0,0,0-2.85.729,2.335,2.335,0,0,0-1.047,2.028,1.86,1.86,0,0,0,.928,1.67,10.866,10.866,0,0,0,3.155,1.087,21.265,21.265,0,0,1,3.831,1.18,5.685,5.685,0,0,1,2.254,1.657,3.986,3.986,0,0,1,.782,2.519,4.811,4.811,0,0,1-.915,2.9,5.963,5.963,0,0,1-2.572,1.962,9.682,9.682,0,0,1-3.8.7A13.4,13.4,0,0,1,1437.771-252.385Z" transform="translate(-1367.179 271.011)"/><path class="a" d="M1527.553-251.5a1.584,1.584,0,0,1-.437-1.193v-15.457a1.586,1.586,0,0,1,.438-1.193,1.66,1.66,0,0,1,1.206-.424h5.25a9.811,9.811,0,0,1,7.119,2.452,9.135,9.135,0,0,1,2.532,6.88,9.17,9.17,0,0,1-2.532,6.907,9.809,9.809,0,0,1-7.119,2.453h-5.25A1.658,1.658,0,0,1,1527.553-251.5Zm12.687-8.935q0-6.549-6.443-6.549h-3.261v13.124h3.261Q1540.24-253.862,1540.24-260.437Z" transform="translate(-1442.22 270.009)"/><path class="a" d="M1646.091-253.066a1.474,1.474,0,0,1-.464,1.074,1.5,1.5,0,0,1-1.1.464,1.7,1.7,0,0,1-1.22-.557l-8.829-8.272v7.159a1.713,1.713,0,0,1-.464,1.246,1.676,1.676,0,0,1-1.26.477,1.64,1.64,0,0,1-1.233-.477,1.712,1.712,0,0,1-.464-1.246v-15.563a1.667,1.667,0,0,1,.464-1.233,1.666,1.666,0,0,1,1.233-.464,1.7,1.7,0,0,1,1.26.464,1.668,1.668,0,0,1,.464,1.233v6.814l8.537-8.007a1.5,1.5,0,0,1,1.087-.477,1.476,1.476,0,0,1,1.074.464,1.475,1.475,0,0,1,.464,1.074,1.513,1.513,0,0,1-.53,1.114l-7.132,6.522,7.583,7.053A1.539,1.539,0,0,1,1646.091-253.066Z" transform="translate(-1526.171 270.565)"/></g><g transform="translate(794.133 -299.048)"><path class="a" d="M834.612-294.758a6.662,6.662,0,0,0-6.276-4.29h-27.53a6.657,6.657,0,0,0-6.259,4.275,6.636,6.636,0,0,0-.4,1.9l-.014.24v21.856a1.475,1.475,0,0,0,1.474,1.474h.228a1.475,1.475,0,0,0,1.474-1.474v-16L810.3-275.55a6.56,6.56,0,0,0,2.788,1.421,6.417,6.417,0,0,0,2.979,0,6.559,6.559,0,0,0,2.788-1.421l12.982-11.22v15.991a1.475,1.475,0,0,0,1.474,1.474h.228a1.475,1.475,0,0,0,1.474-1.474V-292.2A6.569,6.569,0,0,0,834.612-294.758Zm-37.054,1.1a3.412,3.412,0,0,1,3.219-2.18h27.6a3.476,3.476,0,0,1,2.606,1.158,3.236,3.236,0,0,1,.785,2.573,3.479,3.479,0,0,1-1.21,2.2l-13.8,11.93a3.374,3.374,0,0,1-1.974.8,3.031,3.031,0,0,1-.422,0,3.35,3.35,0,0,1-1.959-.8l-13.893-12.008A3.3,3.3,0,0,1,797.558-293.658Z" transform="translate(-794.133 299.048)"/></g></g></svg>